<?xml version="1.0" encoding="utf-8"?>
<!-- Generator: Adobe Illustrator 21.0.0, SVG Export Plug-In . SVG Version: 6.00 Build 0)  -->
<!DOCTYPE svg PUBLIC "-//W3C//DTD SVG 1.1//EN" "http://www.w3.org/Graphics/SVG/1.1/DTD/svg11.dtd">
<svg version="1.1" id="Layer_1" xmlns="http://www.w3.org/2000/svg" xmlns:xlink="http://www.w3.org/1999/xlink" x="0px" y="0px"
	 width="61px" height="2532.9px" viewBox="0 0 61 2532.9" style="enable-background:new 0 0 61 2532.9;" xml:space="preserve">
<style type="text/css">
	.st0{fill:#F27921;}
	.st1{fill:none;stroke:#F27921;stroke-width:0.5;stroke-miterlimit:10;}
	.st2{fill:#FFFFFF;stroke:#F27921;stroke-width:0.5;stroke-miterlimit:10;}
	.st3{fill:none;stroke:#F27921;stroke-miterlimit:10;}
	.st4{fill:#F27921;stroke:#FCE4D3;stroke-width:0.5;stroke-miterlimit:10;}
	.st5{fill:#FCE4D3;stroke:#F27921;stroke-width:0.5;stroke-miterlimit:10;}
	.st6{fill:#F27921;stroke:#FFFFFF;stroke-width:0.25;stroke-miterlimit:10;}
	.st7{fill:none;stroke:#EF7922;stroke-width:0.5;stroke-miterlimit:10;}
	.st8{fill:#EF7922;}
	.st9{fill:none;stroke:#F27921;stroke-width:2;stroke-linecap:round;stroke-miterlimit:10;}
	.st10{fill:none;stroke:#F27921;stroke-width:2;stroke-miterlimit:10;}
	.st11{fill:#FFFFFF;stroke:#EF7922;stroke-width:0.5;stroke-miterlimit:10;}
	.st12{fill:#FFFFFF;stroke:#EF7922;stroke-width:0.25;stroke-miterlimit:10;}
	.st13{fill:none;}
	.st14{fill:#F27921;stroke:#FFFFFF;stroke-width:0.5;stroke-miterlimit:10;}
	.st15{fill:#F7BB85;}
	.st16{fill:none;stroke:#EF780B;stroke-miterlimit:10;}
	.st17{fill:#EF780B;}
	.st18{clip-path:url(#SVGID_2_);fill:#EF780B;}
	.st19{fill:none;stroke:#EF780B;stroke-width:0.5;stroke-miterlimit:10;}
	.st20{clip-path:url(#SVGID_5_);fill:#EF780B;}
	.st21{clip-path:url(#SVGID_8_);fill:#FFFFFF;}
	.st22{clip-path:url(#SVGID_10_);fill:#EF780B;}
	.st23{fill:#FFFFFF;stroke:#EF7922;stroke-width:0.3;stroke-miterlimit:10;}
	.st24{fill:#FCE4D3;}
	.st25{fill:none;stroke:#FFFFFF;stroke-width:0.5;stroke-miterlimit:10;}
	.st26{fill:none;stroke:#FFFFFF;stroke-width:0.5;stroke-linecap:round;stroke-miterlimit:10;}
	
		.st27{fill-rule:evenodd;clip-rule:evenodd;fill:#FFFFFF;stroke:#FA7A15;stroke-width:0.5;stroke-linecap:round;stroke-linejoin:round;stroke-miterlimit:10;}
	.st28{fill:#FFFFFF;}
</style>
<g>
	<rect x="15.4" y="1440.3" class="st0" width="1.3" height="1.4"/>
	<rect x="15.4" y="1436.1" class="st0" width="1.3" height="1.4"/>
	<rect x="15.4" y="1431.9" class="st0" width="1.3" height="1.4"/>
	<rect x="19.3" y="1440.4" class="st0" width="14.1" height="1.4"/>
	<rect x="19.3" y="1436.1" class="st0" width="14.1" height="1.4"/>
	<rect x="19.3" y="1431.9" class="st0" width="14.1" height="1.4"/>
</g>
<g>
	<path class="st1" d="M36.2,652.6h-1c-0.5,0-1-0.4-1.1-0.8l-0.6-1.4c-0.2-0.4-0.1-1,0.2-1.4l0.7-0.7c0.3-0.3,0.3-0.9,0-1.2l-1.2-1.2
		c-0.3-0.3-0.9-0.3-1.2,0l-0.7,0.7c-0.3,0.3-1,0.4-1.4,0.2l-1.4-0.6c-0.5-0.1-0.8-0.6-0.8-1.1v-1c0-0.5-0.4-0.9-0.9-0.9h-1.7
		c-0.5,0-0.9,0.4-0.9,0.9v1c0,0.5-0.4,1-0.8,1.1l-1.4,0.6c-0.4,0.2-1,0.1-1.4-0.2l-0.7-0.7c-0.3-0.3-0.9-0.3-1.2,0l-1.2,1.2
		c-0.3,0.3-0.3,0.9,0,1.2l0.7,0.7c0.3,0.3,0.4,1,0.2,1.4l-0.6,1.4c-0.1,0.5-0.6,0.8-1.1,0.8h-1c-0.5,0-0.9,0.4-0.9,0.9v1.7
		c0,0.5,0.4,0.9,0.9,0.9h1c0.5,0,1,0.4,1.1,0.8l0.6,1.4c0.2,0.4,0.1,1-0.2,1.4l-0.7,0.7c-0.3,0.3-0.3,0.9,0,1.2l1.2,1.2
		c0.3,0.3,0.9,0.3,1.2,0l0.7-0.7c0.3-0.3,1-0.4,1.4-0.2l1.4,0.6c0.5,0.1,0.8,0.6,0.8,1.1v1c0,0.5,0.4,0.9,0.9,0.9h1.7
		c0.5,0,0.9-0.4,0.9-0.9v-1c0-0.5,0.4-1,0.8-1.1l1.4-0.6c0.4-0.2,1-0.1,1.4,0.2l0.7,0.7c0.3,0.3,0.9,0.3,1.2,0l1.2-1.2
		c0.3-0.3,0.3-0.9,0-1.2l-0.7-0.7c-0.3-0.3-0.4-1-0.2-1.4l0.6-1.4c0.1-0.5,0.6-0.8,1.1-0.8h1c0.5,0,0.9-0.4,0.9-0.9v-1.7
		C37.1,653,36.7,652.6,36.2,652.6z"/>
</g>
<path class="st0" d="M17.7,34.6c-1.1-1.2-1.9-2.8-1.9-4.6c0-3.6,2.9-6.4,6.4-6.4c1.8,0,3.4,0.8,4.6,1.9
	C26.7,25.5,17.7,34.6,17.7,34.6z"/>
<path class="st0" d="M24,36.2c-1.6,0.5-3.5,0.2-4.9-0.7c0.1,0.1,8.7-8.6,8.6-8.6c0.9,1.5,1.1,3.3,0.6,5C28.3,31.8,24,36.1,24,36.2z"
	/>
<path class="st1" d="M37.3,44l-1.1,1l-1.5-1.4c0,0-1.9,0.3-2.4-0.3L25,37.2l4.5-4.5c0,0,6,7.3,6,7.4c0.5,0.5,0.3,2.3,0.3,2.3
	L37.3,44z"/>
<g>
	<path class="st1" d="M27,117.6c-0.5,0-0.9,0.4-0.9,0.9s0.4,0.9,0.9,0.9s0.9-0.4,0.9-0.9S27.4,117.6,27,117.6z M32.1,120.3
		c0.5,0,0.9,0.4,0.9,0.9v1.7H20.9v-1.7c0-0.5,0.4-0.9,0.9-0.9h2.6c0,0,0-1.2,0-2.6c0-1.5,1.1-2.7,2.6-2.7s2.6,1.3,2.6,2.7
		c0,1.5,0,2.6,0,2.6H32.1z M35,124.7v-4.9v15.5c0,0,0.1,1.7-1.7,1.7h-13c-1.7,0-1.8-1.8-1.8-1.8V120c0-1.7,1.7-1.6,1.7-1.6H23
		 M31.5,118.4h-0.4h2.1c0,0,1.7,0,1.7,1.6"/>
	<path class="st0" d="M29.8,125.4l-4.7,4.6l-1.4-1.4c-0.3-0.3-0.8-0.3-1.1,0l-0.8,0.8c-0.3,0.3-0.3,0.8,0,1.1l1.9,1.9l0.9,0.8
		c0.3,0.3,0.8,0.3,1.1,0l0.8-0.8l5.3-5.1c0.3-0.3,0.3-0.8,0-1.1l-0.8-0.8C30.6,125.1,30.1,125.1,29.8,125.4z"/>
</g>
<rect x="26.7" y="305" class="st0" width="4.6" height="3"/>
<rect x="26.7" y="300.4" class="st0" width="4.6" height="3"/>
<rect x="33.6" y="305" class="st0" width="4.6" height="3"/>
<g>
	<path class="st0" d="M35.5,90.1c-1.5,0-2.7-1.2-2.7-2.8c0-1.5,1.2-2.8,2.7-2.8s2.7,1.2,2.7,2.8C38.2,88.8,37,90.1,35.5,90.1
		L35.5,90.1L35.5,90.1z"/>
	<path class="st0" d="M26.3,90.1c-1.4,0-2.6-1.1-2.6-2.5s1.2-2.5,2.6-2.5s2.6,1.1,2.6,2.5S27.7,90.1,26.3,90.1L26.3,90.1L26.3,90.1z
		"/>
	<polygon class="st1" points="38.2,82.6 23.7,82.6 19.5,73.1 15.4,73.1 15.4,70.1 21.7,70.1 26.2,79.5 38.2,79.5 	"/>
</g>
<rect x="15.4" y="334.6" class="st2" width="22.5" height="1.9"/>
<rect x="15.4" y="337.9" class="st2" width="22.5" height="1.9"/>
<rect x="15.4" y="341.3" class="st2" width="22.5" height="1.9"/>
<rect x="15.4" y="331.2" class="st2" width="22.5" height="1.9"/>
<path class="st0" d="M27.9,1614c-0.7,0-1.3,0.5-1.3,1.3s0.6,1.3,1.3,1.3s1.3-0.5,1.3-1.3C29.2,1614.5,28.6,1614,27.9,1614z"/>
<path class="st0" d="M23.8,1619.6c0,0.2,0,0.5,0,0.7l1.1-1.3c0.2-0.2,0.5-0.4,0.6-0.4s0.2,0.2,0.2,0.4l-1.8,6.1
	c-0.2,0.7,0.2,1.4,1.2,1.6c1.4,0,2.3-1,3.1-2.2c0-0.2,0.1-0.5,0-0.8l-1.1,1.3c-0.2,0.2-0.5,0.4-0.6,0.4s-0.2-0.2-0.2-0.3l1.8-6.1
	c0.2-0.8-0.3-1.5-1.1-1.6C26,1617.4,24.7,1618.4,23.8,1619.6z"/>
<circle class="st1" cx="26.5" cy="1620.4" r="11"/>
<path class="st1" d="M32,1755.8c0,0,0.9-0.7,0.2-1.4c-0.7-0.7-1.4,0.2-1.4,0.2l-5.4,5.4c0,0-1.6,2.1-2.9,0.8
	c-1.2-1.3,0.8-2.9,0.8-2.9l7.5-7.5c0,0,2.1-2.3,4.1-0.3s-0.3,4.1-0.3,4.1l-10.2,10.2c0,0-3.3,3.8-6.3,0.7c-3-3,0.8-6.3,0.8-6.3
	l7.8-7.8c0,0,0.9-0.7,0.2-1.4c-0.6-0.6-1.4,0.2-1.4,0.2l-8.9,8.9c0,0-3.4,3.7,0.4,7.4c3.7,3.7,7.4,0.4,7.4,0.4l12.2-12.2
	c0,0,2.5-2.7-0.5-5.6c-2.9-2.9-5.6-0.5-5.6-0.5l-9,9c0,0-2.7,2.2-0.2,4.6c2.4,2.4,4.6-0.3,4.6-0.3L32,1755.8z"/>
<g>
	<path class="st0" d="M26.2,1354.2H37c0.5,0,0.8,0.4,0.8,0.8c0,0.5-0.4,0.8-0.8,0.8H24.2C25,1355.4,25.6,1354.8,26.2,1354.2z"/>
	<path class="st3" d="M27,1350c0-3.2-2.6-5.9-5.9-5.9s-5.9,2.6-5.9,5.9c0,3.2,2.6,5.9,5.9,5.9S27,1353.2,27,1350z"/>
	<path class="st0" d="M37,1340.8H23.6c-0.5,0-0.8-0.4-0.8-0.8c0-0.5,0.4-0.8,0.8-0.8H37c0.5,0,0.8,0.4,0.8,0.8
		S37.4,1340.8,37,1340.8z"/>
	<path class="st0" d="M37,1345.8H26.2c-0.5-0.7-1.2-1.2-2-1.7H37c0.5,0,0.8,0.4,0.8,0.8C37.8,1345.4,37.4,1345.8,37,1345.8z"/>
	<path class="st0" d="M37,1350.8h-9.4c0-0.3,0.1-0.6,0.1-0.8c0-0.3,0-0.6-0.1-0.8H37c0.5,0,0.8,0.4,0.8,0.8S37.4,1350.8,37,1350.8z"
		/>
</g>
<g>
	<path class="st1" d="M35.1,1670.7c-1.2,0-1.2-0.8-1.2-1.3c0-4.9-1.5-9.1-4.5-10.6c-0.3-1.5-1.4-3.4-2.7-3.4s-2.4,1.9-2.7,3.4
		c-3,1.5-4.5,5.7-4.5,10.6c0,0.4,0,1.3-1.2,1.3h-1.4v2.8h19.5v-2.8H35.1z"/>
	<g>
		<path class="st4" d="M26.8,1677.7c1.5,0,2.8-1.2,2.8-2.8H24C24,1676.4,25.2,1677.7,26.8,1677.7z"/>
	</g>
</g>
<g>
	<g>
		<path class="st1" d="M36.1,511.5v-0.6v14.9c0,0,0.1,1.7-1.7,1.7H21.6c-1.7,0-1.8-1.7-1.8-1.7v-18.9c0-1.6,1.7-1.6,1.7-1.6H30h1.5"
			/>
		<polygon class="st5" points="35.7,510.6 31.8,510.6 31.8,505.7 33.8,508.2 		"/>
	</g>
	<path class="st1" d="M26.6,524.1c0.4,0,0.8,0.1,1.1-0.1c0.8-0.4,1-1.7,1.9-2.2c0.4-0.2,0.9-0.2,1.2,0.1c0.4,0.3,0.6,0.8,0.8,1.3
		c0.3,0.6,0.6,1.2,1.2,1.2c0.3,0,0.6-0.2,0.6-0.5"/>
	<path class="st0" d="M26.7,523l-2.7-1.3l1.8-1.6L26.7,523z M17.4,514.2l1.8-1.6l6.2,7l-1.8,1.6L17.4,514.2L17.4,514.2z M17.8,510.4
		c-0.1-0.1-0.1-0.2,0-0.3c0.1-0.1,0.2-0.1,0.3,0l4,4.6c0.1,0.1,0.1,0.2,0,0.3s-0.2,0.1-0.3,0l-2.6-3l-2.5,2.2l-0.9-1.1l2.4-2.1
		L17.8,510.4z M16.5,509.7l1.1,1.2l-1.8,1.6l-1.1-1.2c-0.4-0.5-0.4-1.2,0.1-1.7S16.1,509.2,16.5,509.7z"/>
</g>
<g>
	<path class="st2" d="M33.6,619.9h-9.8c0,0-1.7-0.1-1.7-1.6v-0.8h9.8c0,0,1.8-0.1,1.8-1.6V605l0,0c0,0,1.7,0,1.7,1.6v11.7
		C35.3,618.3,35.3,619.9,33.6,619.9z"/>
</g>
<g>
	<path class="st2" d="M33.7,603.8v-0.5v12.9c0,0,0.1,1.5-1.5,1.5h-11c-1.5,0-1.5-1.5-1.5-1.5v-16.3c0-1.4,1.5-1.4,1.5-1.4h7.3h1.3"
		/>
	<polygon class="st5" points="33.4,603 30,603 30,598.8 31.8,600.9 	"/>
</g>
<path class="st1" d="M34.1,1898.9l-0.6,3.4H19.3l-0.6-3.4h-1.6v5.4h18.6v-5.4H34.1z M31.1,1895.9c0,0,0.9-0.1,0.4,0.4l-4.4,4.4
	c0,0-0.3,0.3-0.5,0l-4.3-4.4c0,0-0.5-0.4,0.5-0.4h2.1v-5.4c0.1-0.8,0.9-0.8,0.9-0.8h2.3c0.9,0,0.9,0.9,0.9,0.9v5.4L31.1,1895.9z"/>
<g>
	<circle class="st2" cx="26.7" cy="470.1" r="11.3"/>
	<path class="st0" d="M25.7,475.2c-0.2,0.2-0.4,0.2-0.6,0l-0.1-0.1l-0.1-0.1l-0.6-0.6l0,0l-2.8-2.8c-0.2-0.2-0.2-0.4,0-0.6l0.9-0.9
		c0.2-0.2,0.4-0.2,0.6,0l2.5,2.5l5.2-5.2c0.2-0.2,0.4-0.2,0.6,0l0.9,0.9c0.2,0.2,0.2,0.4,0,0.6L25.7,475.2z"/>
</g>
<circle class="st3" cx="25.9" cy="654.5" r="4.9"/>
<g>
	<path class="st2" d="M35.2,420.1h-18c-1.4,0-2.4,1.1-2.4,2.4v0.8h22.9v-0.8C37.7,421.2,36.6,420.1,35.2,420.1z"/>
	<path class="st2" d="M14.8,425.4v6.5c0,1.4,1.1,2.4,2.4,2.4h18c1.4,0,2.4-1.1,2.4-2.4v-6.5H14.8z"/>
	<path class="st6" d="M26.5,429.6h-9.4c-0.3,0-0.6-0.3-0.6-0.6s0.3-0.6,0.6-0.6h9.4c0.3,0,0.6,0.3,0.6,0.6S26.9,429.6,26.5,429.6z"
		/>
	<path class="st6" d="M26.5,432.3H23c-0.3,0-0.6-0.3-0.6-0.6c0-0.3,0.3-0.6,0.6-0.6h3.5c0.3,0,0.6,0.3,0.6,0.6
		S26.9,432.3,26.5,432.3z"/>
	<path class="st6" d="M20.7,432.3h-3.5c-0.3,0-0.6-0.3-0.6-0.6c0-0.3,0.3-0.6,0.6-0.6h3.5c0.3,0,0.6,0.3,0.6,0.6
		C21.2,432,21,432.3,20.7,432.3z"/>
</g>
<g>
	<rect x="16" y="1718.3" class="st0" width="1.6" height="1.7"/>
	<rect x="16" y="1713.1" class="st0" width="1.6" height="1.7"/>
	<rect x="16" y="1707.9" class="st0" width="1.6" height="1.7"/>
	<rect x="20.7" y="1718.3" class="st0" width="17.4" height="1.7"/>
	<rect x="20.7" y="1713.1" class="st0" width="17.4" height="1.7"/>
	<rect x="20.7" y="1708" class="st0" width="17.4" height="1.7"/>
</g>
<path class="st0" d="M22.8,167.9c-0.2,0.2-0.4,0.2-0.6,0l-6.5-6.5c-0.2-0.2-0.2-0.4,0-0.6s0.4-0.2,0.6,0l6.5,6.5
	C23,167.5,23,167.7,22.8,167.9z"/>
<path class="st1" d="M37.3,174.7l-7.7,7.7c-0.7,0.7-1.7,0.7-2.4,0l-9.5-9.5l-2.3-7.2l1.8-1.7l3.3,3.3c-0.1,0.6,0.1,1.3,0.6,1.8
	c0.8,0.8,2.1,0.8,3,0c0.8-0.8,0.8-2.2,0-3c-0.5-0.5-1.1-0.7-1.8-0.6l-3.3-3.3l1.7-1.7l7.3,2.3l9.5,9.5C38,173,38,174.1,37.3,174.7z"
	/>
<path class="st0" d="M36.1,264.1h-9.5v-9.2c-5.3,0-9.5,4.3-9.5,9.5s4.3,9.5,9.5,9.5s9.5-4.3,9.5-9.5
	C36.1,263.4,36.1,264.1,36.1,264.1z M36.7,264.4c0,5.5-4.5,10-10,10s-10-4.5-10-10s4.5-10,10-10c0.3,0,0.5,0,0.8,0v8.9h9.2
	C36.6,263.7,36.7,264.1,36.7,264.4z M28.2,262.5c0,0,0.1-9.3,0-9.3c5.3,0,9.3,3.9,9.3,9.3C37.4,262.6,28.2,262.5,28.2,262.5z"/>
<g>
	<path class="st1" d="M19.5,375.5c0,1.9,2.3,5.9,2.3,5.9l5.4,9l5.1-9c0,0,2.6-4,2.6-5.9c0-4.2-3.5-7.7-7.7-7.7
		S19.5,371.2,19.5,375.5z"/>
	<path class="st3" d="M22.7,374.9c0-2.5,2-4.5,4.5-4.5s4.5,2,4.5,4.5s-2,4.5-4.5,4.5S22.7,377.4,22.7,374.9z"/>
</g>
<line class="st1" x1="21.9" y1="611.5" x2="30" y2="611.5"/>
<line class="st1" x1="21.9" y1="604.9" x2="26.7" y2="604.9"/>
<line class="st1" x1="21.9" y1="608.3" x2="30.4" y2="608.3"/>
<line class="st1" x1="21.8" y1="614.6" x2="30" y2="614.6"/>
<line class="st1" x1="21.9" y1="601.7" x2="26.7" y2="601.7"/>
<path class="st7" d="M20.7,969.9c-0.8,0-1.5-0.7-1.5-1.5v-1.6c0-0.8,0.7-1.5,1.5-1.5s1.5,0.7,1.5,1.5v1.6
	C22.3,969.2,21.6,969.9,20.7,969.9z"/>
<path class="st7" d="M30.1,969.9c-0.8,0-1.5-0.7-1.5-1.5v-1.6c0-0.8,0.7-1.5,1.5-1.5s1.5,0.7,1.5,1.5v1.6
	C31.6,969.2,30.9,969.9,30.1,969.9z"/>
<rect x="30.1" y="982.3" class="st7" width="2.3" height="2.3"/>
<rect x="30.1" y="978.4" class="st7" width="2.3" height="2.3"/>
<rect x="30.1" y="974.5" class="st8" width="2.3" height="2.3"/>
<rect x="26.2" y="982.3" class="st8" width="2.3" height="2.3"/>
<rect x="26.2" y="978.4" class="st7" width="2.3" height="2.3"/>
<rect x="26.2" y="974.5" class="st7" width="2.3" height="2.3"/>
<rect x="22.3" y="982.3" class="st7" width="2.3" height="2.3"/>
<rect x="22.3" y="978.4" class="st8" width="2.3" height="2.3"/>
<rect x="22.3" y="974.5" class="st7" width="2.3" height="2.3"/>
<rect x="18.4" y="982.3" class="st7" width="2.3" height="2.3"/>
<rect x="18.4" y="978.4" class="st7" width="2.3" height="2.3"/>
<rect x="18.4" y="974.5" class="st7" width="2.3" height="2.3"/>
<rect x="16.9" y="973" class="st7" width="17.1" height="13.2"/>
<path class="st7" d="M34,987.8H16.9c-0.9,0-1.6-0.7-1.6-1.6v-17.1c0-0.9,0.7-1.6,1.6-1.6h1.6v0.8c0,1.3,1,2.3,2.3,2.3s2.3-1,2.3-2.3
	v-0.8h4.7v0.8c0,1.3,1,2.3,2.3,2.3s2.3-1,2.3-2.3v-0.8H34c0.9,0,1.6,0.7,1.6,1.6v17.1C35.5,987.1,34.8,987.8,34,987.8z"/>
<g>
	<path class="st5" d="M27.1,1841.1c-5.9,0-10.8,4.8-10.8,10.8s4.8,10.8,10.8,10.8s10.8-4.9,10.8-10.8S33.1,1841.1,27.1,1841.1z
		 M27.1,1863c-6.1,0-11.1-5-11.1-11.1s5-11.1,11.1-11.1s11.1,5,11.1,11.1S33.2,1863,27.1,1863z"/>
	<line class="st9" x1="27.2" y1="1846.5" x2="27.2" y2="1853.5"/>
	<path class="st3" d="M26.2,1852.3"/>
	<path class="st3" d="M32.9,1852.3"/>
	<line class="st9" x1="33.2" y1="1853" x2="27.7" y2="1853"/>
</g>
<g>
	<path class="st0" d="M35.4,321.1c-1.5,0-2.7-1.2-2.7-2.8c0-1.5,1.2-2.8,2.7-2.8s2.7,1.2,2.7,2.8C38.2,319.8,36.9,321.1,35.4,321.1
		L35.4,321.1L35.4,321.1z"/>
	<path class="st0" d="M26.2,321.1c-1.4,0-2.6-1.1-2.6-2.5s1.2-2.5,2.6-2.5s2.6,1.1,2.6,2.5S27.7,321.1,26.2,321.1L26.2,321.1
		L26.2,321.1z"/>
	<polygon class="st1" points="38.1,313.6 23.6,313.6 19.5,304.1 15.3,304.1 15.3,301.1 21.6,301.1 26.2,310.5 38.1,310.5 	"/>
</g>
<g>
	<g>
		<path class="st2" d="M30.3,1400.9H20.1c0,0-1.8-0.1-1.8-1.7v-0.9h10.1c0,0,1.9-0.1,1.9-1.6v-11.3l0,0c0,0,1.8,0,1.8,1.6v12.1
			C32.1,1399.3,32.1,1400.9,30.3,1400.9z"/>
	</g>
	<g>
		<path class="st2" d="M30.4,1384.2v-0.5v13.4c0,0,0.1,1.5-1.5,1.5H17.5c-1.5,0-1.6-1.5-1.6-1.5v-17c0-1.5,1.5-1.4,1.5-1.4H25h1.4"
			/>
		<polygon class="st5" points="30.1,1383.4 26.6,1383.4 26.6,1379.1 28.4,1381.3 		"/>
	</g>
	<line class="st1" x1="18.2" y1="1392.2" x2="26.6" y2="1392.2"/>
	<line class="st1" x1="18.2" y1="1385.4" x2="23.2" y2="1385.4"/>
	<line class="st1" x1="18.2" y1="1388.9" x2="27" y2="1388.9"/>
	<line class="st1" x1="18.1" y1="1395.5" x2="26.6" y2="1395.5"/>
	<line class="st1" x1="18.2" y1="1382.1" x2="23.2" y2="1382.1"/>
</g>
<g>
	<path class="st0" d="M35.6,1493.2c-1.5,0-2.7-1.2-2.7-2.8c0-1.5,1.2-2.8,2.7-2.8s2.7,1.2,2.7,2.8
		C38.4,1492,37.1,1493.2,35.6,1493.2L35.6,1493.2L35.6,1493.2z"/>
	<path class="st0" d="M26.5,1493.2c-1.4,0-2.6-1.1-2.6-2.5s1.2-2.5,2.6-2.5s2.6,1.1,2.6,2.5C29,1492.1,27.9,1493.2,26.5,1493.2
		L26.5,1493.2L26.5,1493.2z"/>
	<polygon class="st1" points="38.3,1485.7 23.8,1485.7 19.7,1476.2 15.6,1476.2 15.6,1473.2 21.9,1473.2 26.4,1482.7 38.3,1482.7 	
		"/>
</g>
<g>
	<g>
		<path class="st1" d="M37.2,1523.9v-0.6v14.9c0,0,0.1,1.7-1.7,1.7H22.7c-1.7,0-1.8-1.7-1.8-1.7v-18.9c0-1.6,1.7-1.6,1.7-1.6h8.5
			h1.5"/>
		<polygon class="st5" points="36.8,1523 32.9,1523 32.9,1518.1 34.9,1520.6 		"/>
	</g>
	<path class="st1" d="M27.7,1536.5c0.4,0,0.8,0.1,1.1-0.1c0.8-0.4,1-1.7,1.9-2.2c0.4-0.2,0.9-0.2,1.2,0.1c0.4,0.3,0.6,0.8,0.8,1.3
		c0.3,0.6,0.6,1.2,1.2,1.2c0.3,0,0.6-0.2,0.6-0.5"/>
	<path class="st0" d="M27.8,1535.4l-2.7-1.3l1.8-1.6L27.8,1535.4z M18.5,1526.6l1.8-1.6l6.2,7l-1.8,1.6L18.5,1526.6L18.5,1526.6z
		 M18.9,1522.8c-0.1-0.1-0.1-0.2,0-0.3s0.2-0.1,0.3,0l4,4.6c0.1,0.1,0.1,0.2,0,0.3c-0.1,0.1-0.2,0.1-0.3,0l-2.6-3l-2.5,2.2l-0.9-1.1
		l2.5-2.2L18.9,1522.8z M17.6,1522.1l1.1,1.2l-1.8,1.6l-1.1-1.2c-0.4-0.5-0.4-1.2,0.1-1.7C16.4,1521.6,17.2,1521.6,17.6,1522.1z"/>
</g>
<g>
	<g>
		<path class="st1" d="M33.9,1800.4v-0.6v15.4c0,0,0.1,1.8-1.7,1.8H19c-1.8,0-1.8-1.8-1.8-1.8v-19.5c0-1.7,1.8-1.6,1.8-1.6h8.8h1.6"
			/>
		<polygon class="st5" points="33.6,1799.4 29.6,1799.4 29.5,1794.4 31.6,1797 		"/>
	</g>
	<path class="st1" d="M27.7,1801.8"/>
	<path class="st1" d="M26,1809.3"/>
	<path class="st1" d="M34.2,1810.4"/>
	<path class="st1" d="M25.9,1810.4"/>
	<g>
		<rect x="20.2" y="1811.5" class="st0" width="0.8" height="0.9"/>
		<rect x="20.2" y="1807.6" class="st0" width="0.8" height="0.9"/>
		<rect x="20.2" y="1803.7" class="st0" width="0.8" height="0.9"/>
		<rect x="22.7" y="1811.5" class="st0" width="9.3" height="0.9"/>
		<rect x="22.7" y="1807.6" class="st0" width="9.3" height="0.9"/>
		<rect x="22.7" y="1803.7" class="st0" width="9.3" height="0.9"/>
	</g>
</g>
<g>
	<g>
		<path class="st3" d="M38.3,1580.2l-5.5-3.7v2.3h-3.9l-2.4-3l-1.8,2.2l2.5,3c0.3,0.3,0.7,0.5,1.1,0.5h4.6v2.3L38.3,1580.2z"/>
		<path class="st3" d="M15.3,1571.5h3.9l2.4,3l1.8-2.2l-2.5-3c-0.3-0.3-0.7-0.5-1.1-0.5h-4.6"/>
	</g>
	<path class="st0" d="M15.3,1581.6h4.6c0.4,0,0.8-0.2,1.1-0.5l7.9-9.6h3.9v2.3l5.5-3.7l-5.5-3.7v2.3h-4.6c-0.4,0-0.8,0.2-1.1,0.5
		l-7.9,9.6h-3.9"/>
</g>
<g>
	<g>
		<g>
			<line class="st3" x1="15.2" y1="226" x2="35.2" y2="226"/>
			<g>
				<polygon class="st0" points="34.2,228.5 38.5,226 34.2,223.5 				"/>
			</g>
		</g>
	</g>
	<path class="st2" d="M33.7,210.1l-10.3,10.1l-3.1-3c-0.7-0.7-1.8-0.7-2.4,0l-1.8,1.8c-0.7,0.7-0.7,1.7,0,2.4l4.2,4.1l1.9,1.8
		c0.7,0.7,1.8,0.7,2.4,0l1.8-1.8L38,214.2c0.7-0.7,0.7-1.7,0-2.4l-1.8-1.8C35.5,209.4,34.4,209.4,33.7,210.1z"/>
</g>
<path class="st3" d="M31.2,1937.3"/>
<path class="st3" d="M37.9,1937.3"/>
<g>
	<g>
		<path class="st1" d="M31.1,557.9v-0.5v13.9c0,0,0.1,1.6-1.6,1.6H17.6c-1.6,0-1.7-1.6-1.7-1.6v-17.7c0-1.5,1.6-1.5,1.6-1.5h8h1.4"
			/>
		<polygon class="st5" points="30.8,557.1 27.1,557.1 27.1,552.5 29,554.9 		"/>
	</g>
	<line class="st1" x1="18" y1="565.2" x2="23.5" y2="565.2"/>
	<line class="st1" x1="18" y1="558.5" x2="22.8" y2="558.5"/>
	<path class="st1" d="M25.4,559.3"/>
	<path class="st1" d="M20.6,559.3"/>
	<line class="st1" x1="18" y1="561.4" x2="23.9" y2="561.4"/>
	<path class="st1" d="M23.9,566"/>
	<path class="st1" d="M31.3,567.1"/>
	<path class="st1" d="M23.8,567.1"/>
	<line class="st10" x1="23.8" y1="562.4" x2="28.7" y2="562.4"/>
	<line class="st10" x1="23.8" y1="566.6" x2="28.7" y2="566.6"/>
	<line class="st1" x1="17.9" y1="568.1" x2="24.5" y2="568.1"/>
	<path class="st1" d="M28.8,570.3c-3,0-5.5-2.5-5.5-5.5s2.5-5.5,5.5-5.5s5.5,2.5,5.5,5.5S31.8,570.3,28.8,570.3z M37.6,571.8
		l-3.6-3.6l-0.1-0.1c0.6-0.9,1-2.1,1-3.3c0-3.3-2.7-6-6-6s-6,2.7-6,6s2.7,6,6,6c1.2,0,2.3-0.4,3.3-1l0.1,0.1l3.6,3.6
		c0.2,0.2,0.6,0.4,0.9,0.4c0.3,0,0.6-0.1,0.9-0.4C38.1,573.1,38.1,572.3,37.6,571.8z"/>
</g>
<path class="st5" d="M16.2,671"/>
<path class="st5" d="M15.2,711.1"/>
<g>
	<g>
		<path class="st1" d="M30.9,695.8v-0.5v13.9c0,0,0.1,1.6-1.6,1.6h-12c-1.6,0-1.7-1.6-1.7-1.6v-17.7c0-1.5,1.6-1.5,1.6-1.5h8h1.4"/>
		<polygon class="st5" points="30.6,694.9 26.9,694.9 26.9,690.4 28.8,692.7 		"/>
	</g>
	<line class="st1" x1="17.8" y1="702.8" x2="23.2" y2="702.8"/>
	<line class="st1" x1="17.8" y1="696.5" x2="22.6" y2="696.5"/>
	<path class="st1" d="M25.2,697.1"/>
	<path class="st1" d="M20.4,697.1"/>
	<line class="st1" x1="17.8" y1="699.6" x2="23.7" y2="699.6"/>
	<path class="st1" d="M23.7,703.9"/>
	<path class="st1" d="M31.1,704.9"/>
	<path class="st1" d="M23.6,704.9"/>
	<line class="st10" x1="23.6" y1="700.2" x2="28.5" y2="700.2"/>
	<line class="st10" x1="23.6" y1="704.5" x2="28.5" y2="704.5"/>
	<line class="st1" x1="17.6" y1="705.9" x2="24.2" y2="705.9"/>
	<path class="st1" d="M28.6,708.1c-3,0-5.5-2.5-5.5-5.5s2.5-5.5,5.5-5.5s5.5,2.5,5.5,5.5C34.1,705.7,31.6,708.1,28.6,708.1z
		 M37.4,709.7l-3.6-3.6l-0.1-0.1c0.6-0.9,1-2.1,1-3.3c0-3.3-2.7-6-6-6s-6,2.7-6,6s2.7,6,6,6c1.2,0,2.3-0.4,3.3-1l0.1,0.1l3.6,3.6
		c0.2,0.2,0.6,0.4,0.9,0.4c0.3,0,0.6-0.1,0.9-0.4C37.9,710.9,37.9,710.1,37.4,709.7z"/>
	<line class="st1" x1="17.8" y1="693.3" x2="22.6" y2="693.3"/>
</g>
<g>
	<g>
		<path class="st1" d="M22,745.7c0,3.1-1.6,4.6-3.5,4.6c-1.8,0-3.4-1.5-3.4-4.4s1.6-4.6,3.6-4.6S22,742.9,22,745.7z M16.6,745.8
			c0,1.9,0.7,3.3,1.9,3.3c1.3,0,1.9-1.4,1.9-3.3c0-1.8-0.5-3.3-1.9-3.3C17.3,742.5,16.6,744,16.6,745.8z M18.4,756.5l8.6-15.2h1.3
			l-8.6,15.2H18.4z M31.6,751.8c0,3.1-1.6,4.6-3.5,4.6c-1.8,0-3.4-1.5-3.4-4.4c0-3,1.6-4.6,3.6-4.6C30.3,747.4,31.6,749,31.6,751.8z
			 M26.2,751.9c0,1.9,0.7,3.3,1.9,3.3c1.3,0,1.9-1.4,1.9-3.3c0-1.8-0.5-3.3-1.9-3.3C26.9,748.6,26.2,750.1,26.2,751.9z"/>
	</g>
	<path class="st0" d="M30.5,740.8c0,0-0.7,0.1-0.3-0.3l3.4-3.4c0,0,0.2-0.3,0.4,0l3.4,3.4c0,0,0.4,0.3-0.3,0.3h-1.6v4.2
		c0,0.6-0.7,0.6-0.7,0.6h-1.7c-0.7,0-0.7-0.7-0.7-0.7v-4.1H30.5z"/>
</g>
<path class="st0" d="M25,800.8L25,800.8c-0.3,0.1-0.4,0.1-0.4,0.1c-0.1,0-0.2-0.1-0.3-0.1l-0.5-0.2l-0.5-0.2l-0.6-0.2l-0.5-0.2
	l-0.5-0.2V799c0,0,0-0.1,0-0.2l0.1-0.2l0.1-0.3c0.1-0.2,0.2-0.5,0.3-0.8s0.1-0.6,0.1-0.9c0-0.4,0-0.8-0.1-1.1s-0.2-0.5-0.4-0.7
	s-0.3-0.3-0.6-0.4c-0.2-0.1-0.4-0.1-0.7-0.1c-0.2,0-0.5,0-0.7,0.1s-0.4,0.2-0.5,0.4c-0.2,0.2-0.3,0.4-0.4,0.7s-0.1,0.7-0.1,1.1
	c0,0.3,0,0.6,0.1,0.9s0.2,0.5,0.3,0.8c0,0.1,0.1,0.2,0.1,0.3l0.1,0.2v0.2v0.7l-0.5,0.2l-0.6,0.2l-0.6,0.2l-0.6,0.2
	c-0.2,0.1-0.3,0.1-0.5,0.2c-0.1,0.1-0.3,0.1-0.3,0.1c-0.2,0.1-0.3,0.2-0.4,0.3c-0.1,0.1-0.2,0.3-0.3,0.4c-0.1,0.2-0.1,0.3-0.2,0.5
	v2.2h7"/>
<g>
	<path class="st11" d="M29.7,804.3l3.7-4.5v-2.3c-1.7,2.2-3.7,2.5-3.7,2.5s-2-0.3-3.7-2.6v2.3L29.7,804.3z"/>
</g>
<g>
	<g>
		<g>
			<g>
				<g>
					<g>
						<g>
							
								<ellipse transform="matrix(0.9781 -0.208 0.208 0.9781 -164.3754 22.3528)" class="st12" cx="24.1" cy="792.8" rx="0.8" ry="1.8"/>
						</g>
					</g>
				</g>
			</g>
		</g>
	</g>
</g>
<g>
	<g>
		<g>
			<g>
				<g>
					<g>
						<g>
							
								<ellipse transform="matrix(0.2079 -0.9782 0.9782 0.2079 -747.5237 662.6287)" class="st12" cx="35.4" cy="792.9" rx="1.8" ry="0.8"/>
						</g>
					</g>
				</g>
			</g>
		</g>
	</g>
</g>
<g>
	<path class="st11" d="M29.7,783.8c-6.9,0-5.9,6.6-5.9,6.6c0.4,8.9,5.9,9.8,5.9,9.8s5.5-0.8,5.9-9.8
		C35.6,790.3,36.6,783.8,29.7,783.8z"/>
</g>
<g>
	<path class="st8" d="M34.5,785.7c0.5-0.5-0.4-1.1-0.4-1.1c-0.8-0.2-0.3,0-0.3,0v-0.3l-0.2,0.1c-0.1-0.4-0.5-0.9-0.5-0.9
		c-0.7-0.2,0,0-0.7,0c-0.2-0.5-0.7-0.8-0.7-0.8c-0.5-0.1-0.9-0.5-2-0.2c-1,0-1.1,0.2-1.1,0.2c-2.1,0.6-2.1,0.5-3.2,1.3
		c-0.8,0.5-1.1,1-1.1,1c-0.4,0.5-0.5,1.3-0.4,2.6c-0.3,1.4-0.1,2.5-0.1,2.5c0,0.6,0.1,1.1,0.1,1.6h1c-0.9-3.3,0.7-5.3,0.7-5.3
		c0.9,1.4,4.1,1.4,4.1,1.4s3.1,0,4.1-1.4c0,0,1.6,2.1,0.7,5.3h1c0.1-0.5,0.1-1,0.2-1.6C35.6,790.3,36,787.6,34.5,785.7L34.5,785.7z"
		/>
</g>
<path class="st8" d="M35.1,791.2c-2.6-0.4-3.6-0.2-3.6-0.2c-1.3,0.4-1.8,0.3-1.8,0.3s-0.5,0.1-1.8-0.3c0,0-1-0.3-3.6,0.1l0,0
	l-0.6,0.1c0,0.1,0,0.2,0,0.2c0,0.1,0,0.2,0,0.3l0.5,0.1c0,0,0.3,0.1,0.3,0.3c0,0.6,0.1,1.4,0.5,1.8c0.7,0.8,2.1,0.7,3,0.3
	c0,0,0.9-0.5,1.2-1.8c0,0,0.1-0.4,0.4-0.4c0.4,0,0.4,0.4,0.4,0.4c0.3,1.3,1.2,1.8,1.2,1.8c0.8,0.4,2.3,0.5,3-0.3
	c0.4-0.5,0.5-1.3,0.5-1.8c0-0.2,0.3-0.3,0.3-0.3l0.5-0.1c0-0.1,0-0.2,0-0.4c0,0,0-0.1,0-0.3L35.1,791.2z M28.3,793.7
	c0,0-0.4,0.5-1.3,0.7c0,0-1.2,0.2-1.7-0.6c0,0-0.5-0.9-0.1-2.1c0,0,0.1-0.4,1.8-0.5c0,0,1.7,0,1.8,0.8
	C28.8,792,28.9,792.8,28.3,793.7z M34,793.7c-0.5,0.8-1.7,0.6-1.7,0.6c-1-0.1-1.3-0.7-1.3-0.7c-0.6-0.9-0.5-1.7-0.5-1.7
	c0.1-0.7,1.8-0.8,1.8-0.8c1.7,0,1.8,0.5,1.8,0.5C34.5,792.8,34,793.7,34,793.7z"/>
<line class="st1" x1="26" y1="799.7" x2="22.3" y2="804.1"/>
<line class="st1" x1="33.4" y1="799.7" x2="38.4" y2="804.4"/>
<g>
	<path class="st11" d="M22,850.7l3.8-5.1v-2.3c-1.7,2.3-3.8,2.6-3.8,2.6s-2.1-0.3-3.8-2.6v2.4L22,850.7z"/>
</g>
<g>
	<g>
		<g>
			<g>
				<g>
					<g>
						<g>
							
								<ellipse transform="matrix(0.9778 -0.2097 0.2097 0.9778 -175.4711 22.0607)" class="st12" cx="16.3" cy="838.5" rx="0.8" ry="1.8"/>
						</g>
					</g>
				</g>
			</g>
		</g>
	</g>
</g>
<g>
	<g>
		<g>
			<g>
				<g>
					<g>
						<g>
							
								<ellipse transform="matrix(0.2096 -0.9778 0.9778 0.2096 -797.8751 689.993)" class="st12" cx="27.8" cy="838.5" rx="1.8" ry="0.8"/>
						</g>
					</g>
				</g>
			</g>
		</g>
	</g>
</g>
<g>
	<path class="st11" d="M22,829.2c-7,0-6,6.8-6,6.8c0.4,9.2,6,10,6,10s5.6-0.9,6-10C28,835.9,29.1,829.2,22,829.2z"/>
</g>
<g>
	<path class="st8" d="M26.9,831.1c0.6-0.5-0.4-1.1-0.4-1.1c-0.9-0.2-0.3,0-0.3,0v-0.3l-0.2,0.1c-0.1-0.4-0.5-0.9-0.5-0.9
		c-0.7-0.2,0,0-0.7,0c-0.2-0.5-0.7-0.8-0.7-0.8c-0.6-0.1-0.9-0.5-2-0.2c-1,0-1.1,0.2-1.1,0.2c-2.2,0.6-2.2,0.5-3.3,1.3
		c-0.8,0.5-1.1,1-1.1,1c-0.4,0.5-0.5,1.4-0.4,2.7c-0.3,1.4-0.1,2.6-0.1,2.6c0,0.6,0.1,1.1,0.1,1.6h1c-0.9-3.3,0.7-5.5,0.7-5.5
		c1,1.4,4.2,1.4,4.2,1.4s3.2,0,4.2-1.4c0,0,1.6,2.1,0.7,5.5h1c0.1-0.5,0.1-1,0.2-1.6C28,835.9,28.4,833.1,26.9,831.1L26.9,831.1z"/>
</g>
<path class="st8" d="M27.5,836.8c-2.6-0.4-3.7-0.2-3.7-0.2c-1.3,0.4-1.8,0.3-1.8,0.3s-0.5,0.1-1.8-0.3c0,0-1-0.3-3.6,0.1l0,0
	l-0.6,0.1c0,0.1,0,0.2,0,0.2c0,0.1,0,0.2,0,0.3l0.5,0.1c0,0,0.3,0.1,0.3,0.3c0,0.6,0.1,1.4,0.5,1.9c0.7,0.8,2.2,0.7,3,0.3
	c0,0,0.9-0.5,1.2-1.8c0,0,0.1-0.5,0.4-0.5c0.4,0,0.4,0.5,0.4,0.5c0.3,1.4,1.2,1.8,1.2,1.8c0.8,0.4,2.3,0.5,3-0.3
	c0.4-0.5,0.5-1.3,0.5-1.9c0-0.2,0.3-0.3,0.3-0.3l0.5-0.1c0-0.1,0-0.2,0-0.4c0,0,0-0.1,0-0.3L27.5,836.8z M20.6,839.3
	c0,0-0.4,0.6-1.4,0.7c0,0-1.2,0.2-1.7-0.6c0,0-0.5-1-0.1-2.1c0,0,0.1-0.4,1.8-0.5c0,0,1.7,0,1.8,0.8
	C21.1,837.6,21.3,838.4,20.6,839.3z M26.4,839.4c-0.5,0.8-1.7,0.6-1.7,0.6c-1-0.1-1.4-0.7-1.4-0.7c-0.6-0.9-0.5-1.7-0.5-1.7
	c0.1-0.7,1.8-0.8,1.8-0.8c1.7,0,1.8,0.5,1.8,0.5C27,838.4,26.4,839.4,26.4,839.4z"/>
<g>
	<path class="st1" d="M32.3,879.8v-0.6v15.2c0,0,0.1,1.7-1.7,1.7h-13c-1.7,0-1.8-1.8-1.8-1.8V875c0-1.7,1.7-1.6,1.7-1.6h8.7h1.6"/>
	<g>
		<g>
			<path class="st0" d="M22.3,889.4l2.5-6.4h0.6l-2.5,6.4H22.3z"/>
		</g>
		<g>
			<path class="st0" d="M26.6,888.1l3.2-1.9l0,0l-3.1-2v-0.8l3.7,2.5v0.7l-3.8,2.4L26.6,888.1L26.6,888.1z"/>
		</g>
		<g>
			<path class="st0" d="M21.3,889l-3.6-2.5v-0.7l3.8-2.3v0.8l-3.2,1.8l0,0l3.1,2.1L21.3,889z"/>
		</g>
	</g>
	<polygon class="st5" points="32,878.8 28,878.8 27.9,873.9 30,876.4 	"/>
</g>
<g>
	<path class="st1" d="M37.2,928.6h-1c-0.5,0-1-0.4-1.1-0.8l-0.6-1.4c-0.2-0.4-0.1-1,0.2-1.4l0.7-0.7c0.3-0.3,0.3-0.9,0-1.2l-1.2-1.2
		c-0.3-0.3-0.9-0.3-1.2,0l-0.7,0.7c-0.3,0.3-1,0.4-1.4,0.2l-1.4-0.6c-0.5-0.1-0.8-0.6-0.8-1.1v-1c0-0.5-0.4-0.9-0.9-0.9h-1.7
		c-0.5,0-0.9,0.4-0.9,0.9v1c0,0.5-0.4,1-0.8,1.1l-1.4,0.6c-0.4,0.2-1,0.1-1.4-0.2l-0.7-0.7c-0.3-0.3-0.9-0.3-1.2,0l-1.2,1.2
		c-0.3,0.3-0.3,0.9,0,1.2l0.7,0.7c0.3,0.3,0.4,1,0.2,1.4l-0.6,1.4c-0.1,0.5-0.6,0.8-1.1,0.8h-1c-0.5,0-0.9,0.4-0.9,0.9v1.7
		c0,0.5,0.4,0.9,0.9,0.9h1c0.5,0,1,0.4,1.1,0.8l0.6,1.4c0.2,0.4,0.1,1-0.2,1.4l-0.7,0.7c-0.3,0.3-0.3,0.9,0,1.2l1.2,1.2
		c0.3,0.3,0.9,0.3,1.2,0l0.7-0.7c0.3-0.3,1-0.4,1.4-0.2l1.4,0.6c0.5,0.1,0.8,0.6,0.8,1.1v1c0,0.5,0.4,0.9,0.9,0.9h1.7
		c0.5,0,0.9-0.4,0.9-0.9v-1c0-0.5,0.4-1,0.8-1.1l1.4-0.6c0.4-0.2,1-0.1,1.4,0.2l0.7,0.7c0.3,0.3,0.9,0.3,1.2,0l1.2-1.2
		c0.3-0.3,0.3-0.9,0-1.2l-0.7-0.7c-0.3-0.3-0.4-1-0.2-1.4l0.6-1.4c0.1-0.5,0.6-0.8,1.1-0.8h1c0.5,0,0.9-0.4,0.9-0.9v-1.7
		C38.1,929,37.7,928.6,37.2,928.6z"/>
</g>
<circle class="st3" cx="26.9" cy="930.5" r="4.9"/>
<g>
	<path class="st1" d="M27.1,1022c0,1.7-1.4,3.1-3.1,3.1s-3.1-1.4-3.1-3.1s1.4-3.1,3.1-3.1C25.8,1018.9,27.1,1020.3,27.1,1022z
		 M31.5,1020.7h-0.7c-0.3,0-0.7-0.3-0.8-0.6l-0.4-1c-0.2-0.3-0.1-0.7,0.1-1l0.5-0.5c0.2-0.2,0.2-0.6,0-0.9l-0.9-0.9
		c-0.2-0.2-0.6-0.2-0.9,0l-0.5,0.5c-0.2,0.2-0.7,0.3-1,0.1l-1-0.4c-0.3-0.1-0.6-0.5-0.6-0.8v-0.7c0-0.3-0.3-0.6-0.6-0.6h-1.2
		c-0.3,0-0.6,0.3-0.6,0.6v0.7c0,0.3-0.3,0.7-0.6,0.8l-1,0.4c-0.3,0.2-0.7,0.1-1-0.1l-0.5-0.5c-0.2-0.2-0.6-0.2-0.9,0l-0.9,0.9
		c-0.2,0.2-0.2,0.6,0,0.9l0.5,0.5c0.2,0.2,0.3,0.7,0.1,1l-0.4,1c-0.1,0.3-0.5,0.6-0.8,0.6h-0.7c-0.3,0-0.6,0.3-0.6,0.6v1.2
		c0,0.3,0.3,0.6,0.6,0.6h0.7c0.3,0,0.7,0.3,0.8,0.6l0.4,1c0.2,0.3,0.1,0.7-0.1,1l-0.5,0.5c-0.2,0.2-0.2,0.6,0,0.9l0.9,0.9
		c0.2,0.2,0.6,0.2,0.9,0l0.5-0.5c0.2-0.2,0.7-0.3,1-0.1l1,0.4c0.3,0.1,0.6,0.5,0.6,0.8v0.7c0,0.3,0.3,0.6,0.6,0.6h1.2
		c0.3,0,0.6-0.3,0.6-0.6v-0.7c0-0.3,0.3-0.7,0.6-0.8l1-0.4c0.3-0.2,0.7-0.1,1,0.1l0.5,0.5c0.2,0.2,0.6,0.2,0.9,0l0.9-0.9
		c0.2-0.2,0.2-0.6,0-0.9l-0.5-0.5c-0.2-0.2-0.3-0.7-0.1-1l0.4-1c0.1-0.3,0.5-0.6,0.8-0.6h0.7c0.3,0,0.6-0.3,0.6-0.6v-1.2
		C32.1,1021,31.8,1020.7,31.5,1020.7z"/>
</g>
<g>
	<path class="st0" d="M36.3,1029.2c0,0.9-0.8,1.7-1.7,1.7s-1.7-0.8-1.7-1.7c0-0.9,0.8-1.7,1.7-1.7
		C35.5,1027.4,36.3,1028.2,36.3,1029.2z M38.7,1028.5h-0.4c-0.2,0-0.4-0.1-0.4-0.3l-0.2-0.6c-0.1-0.2-0.1-0.4,0.1-0.5l0.3-0.3
		c0.1-0.1,0.1-0.3,0-0.5l-0.5-0.5c-0.1-0.1-0.3-0.1-0.5,0l-0.3,0.3c-0.1,0.1-0.4,0.2-0.5,0.1l-0.6-0.2c-0.2-0.1-0.3-0.3-0.3-0.4
		v-0.4c0-0.2-0.2-0.3-0.3-0.3h-0.9c-0.2,0-0.3,0.2-0.3,0.3v0.4c0,0.2-0.1,0.4-0.3,0.4l-0.6,0.2c-0.2,0.1-0.4,0.1-0.5-0.1l-0.3-0.3
		c-0.1-0.1-0.3-0.1-0.5,0l-0.5,0.5c-0.1,0.1-0.1,0.4,0,0.5l0.3,0.3c0.1,0.1,0.2,0.4,0.1,0.5l-0.2,0.6c-0.1,0.2-0.3,0.3-0.4,0.3h-0.4
		c-0.2,0-0.3,0.2-0.3,0.3v0.7c0,0.2,0.2,0.3,0.3,0.3H31c0.2,0,0.4,0.1,0.4,0.3l0.2,0.6c0.1,0.2,0.1,0.4-0.1,0.5l-0.3,0.3
		c-0.1,0.1-0.1,0.3,0,0.5l0.5,0.5c0.1,0.1,0.3,0.1,0.5,0l0.3-0.3c0.1-0.1,0.4-0.2,0.5-0.1l0.6,0.2c0.2,0.1,0.3,0.3,0.3,0.4v0.4
		c0,0.2,0.2,0.3,0.3,0.3h0.7c0.2,0,0.3-0.2,0.3-0.3v-0.4c0-0.2,0.1-0.4,0.3-0.4l0.6-0.2c0.2-0.1,0.4-0.1,0.5,0.1l0.3,0.3
		c0.1,0.1,0.3,0.1,0.5,0l0.5-0.5c0.1-0.1,0.1-0.3,0-0.5l-0.3-0.3c-0.1-0.1-0.2-0.4-0.1-0.5l0.2-0.6c0.1-0.2,0.3-0.3,0.4-0.3h0.4
		c0.2,0,0.3-0.2,0.3-0.3v-0.7C39,1028.6,38.9,1028.5,38.7,1028.5z"/>
</g>
<g>
	<g>
		<path class="st1" d="M17.7,1079c-0.4,0.4-1,0.4-1.4,0l-0.7-0.7c-0.4-0.4-0.4-1,0-1.4l9-9c0.4-0.4,1-0.4,1.4,0l0.7,0.7
			c0.4,0.4,0.4,1,0,1.4L17.7,1079z"/>
	</g>
	<polygon class="st1" points="29.2,1059.3 23,1065.5 29.2,1071.7 35.4,1065.5 	"/>
	<path class="st1" d="M37.4,1066.2c-0.4-0.4-1-0.4-1.4,0l-6.2,6.2c-0.4,0.4-0.4,1,0,1.4s1,0.4,1.4,0l6.2-6.2
		C37.8,1067.2,37.8,1066.6,37.4,1066.2z"/>
	<path class="st1" d="M28.5,1057.2c-0.4-0.4-1-0.4-1.4,0l-6.2,6.2c-0.4,0.4-0.4,1,0,1.4s1,0.4,1.4,0l6.2-6.2
		C28.9,1058.2,28.9,1057.6,28.5,1057.2z"/>
	<polygon class="st1" points="28.5,1058.6 22.3,1064.8 23,1065.5 29.2,1059.3 	"/>
	
		<rect x="28.3" y="1068.5" transform="matrix(0.7071 -0.7071 0.7071 0.7071 -746.3052 336.2375)" class="st1" width="8.8" height="1"/>
</g>
<g>
	<polygon class="st13" points="36.5,1117.2 20.7,1117.5 17.1,1113 17.1,1110.1 17.1,1105.3 17.1,1104 37.4,1104 37.4,1105.3 
		37.4,1110.1 37.4,1112.3 	"/>
	<polygon class="st2" points="37.2,1125.6 17.2,1125.6 27.2,1116 	"/>
	<polygon class="st0" points="36.9,1104.4 17.5,1104.4 17.5,1112.1 17.1,1112.1 17.1,1105.3 17.1,1104 37.4,1104 37.4,1105.3 
		37.4,1111.4 36.8,1111.7 	"/>
	<rect x="20.4" y="1107.4" class="st0" width="4.1" height="0.7"/>
	<rect x="20.4" y="1109.4" class="st0" width="4.1" height="0.7"/>
	<rect x="25.2" y="1107.4" class="st0" width="4.1" height="0.7"/>
	<rect x="25.2" y="1109.4" class="st0" width="4.1" height="0.7"/>
	<rect x="29.9" y="1107.4" class="st0" width="4.1" height="0.7"/>
	<rect x="29.9" y="1109.4" class="st0" width="4.1" height="0.7"/>
	<polyline class="st2" points="16.4,1110.7 25,1117.6 16.4,1125.6 16.4,1110.7 	"/>
	<polygon class="st2" points="29.4,1117.6 38,1110.7 38,1118.7 38,1125.6 	"/>
</g>
<g>
	<path class="st1" d="M35.1,1167.1h-3.6l-8.8,5.5v-5.5h-2.9c-1,0-1.8-0.8-1.8-1.7v-9.8c0-1,0.8-1.8,1.8-1.8h15.3
		c1,0,1.7,0.8,1.7,1.8v9.8C36.8,1166.3,36.1,1167.1,35.1,1167.1z"/>
	<path class="st14" d="M22.9,1149.2l-7.8,6l7.8,6.5v-4c5.8-0.5,9.1,1.6,9.1,1.6c-2-4.7-6.6-5.9-9.1-6.2V1149.2z"/>
</g>
<g>
	<path class="st1" d="M24.2,1198.3c-0.5,0-0.9,0.4-0.9,0.9s0.4,0.9,0.9,0.9s0.9-0.4,0.9-0.9S24.7,1198.3,24.2,1198.3z M29.4,1201
		c0.5,0,0.9,0.4,0.9,0.9v1.7H18.2v-1.7c0-0.5,0.4-0.9,0.9-0.9h2.6c0,0,0-1.2,0-2.6c0-1.5,1.1-2.7,2.6-2.7s2.6,1.3,2.6,2.7
		c0,1.5,0,2.6,0,2.6H29.4z M32.3,1205.3v-4.9v15.5c0,0,0.1,1.7-1.7,1.7h-13c-1.7,0-1.8-1.8-1.8-1.8v-15.3c0-1.7,1.7-1.6,1.7-1.6h2.8
		 M28.8,1199h-0.4h2.1c0,0,1.7,0,1.7,1.6"/>
	<rect x="18.4" y="1211.7" class="st0" width="0.8" height="0.9"/>
	<rect x="18.4" y="1209.6" class="st0" width="0.8" height="0.9"/>
	<rect x="18.4" y="1207.5" class="st0" width="0.8" height="0.9"/>
	<rect x="20.8" y="1211.8" class="st0" width="8.8" height="0.9"/>
	<rect x="20.8" y="1209.7" class="st0" width="8.8" height="0.9"/>
	<rect x="20.8" y="1207.6" class="st0" width="8.8" height="0.9"/>
</g>
<g>
	<g>
		<path class="st2" d="M38.1,1247.2v-0.6v15.4c0,0,0.1,1.8-1.7,1.8H23.2c-1.8,0-1.8-1.8-1.8-1.8v-19.6c0-1.7,1.8-1.6,1.8-1.6H32h1.6
			"/>
		<polygon class="st5" points="37.8,1246.2 33.8,1246.2 33.7,1241.2 35.9,1243.8 		"/>
	</g>
	<path class="st0" d="M26.4,1259.1l-2.8-1.4l1.8-1.6L26.4,1259.1z M16.8,1250l1.8-1.6l6.4,7.3l-1.8,1.6L16.8,1250L16.8,1250z
		 M17.2,1246.1c-0.1-0.1-0.1-0.3,0-0.3c0.1-0.1,0.3-0.1,0.3,0l4.2,4.7c0.1,0.1,0.1,0.3,0,0.3c-0.1,0.1-0.3,0.1-0.3,0l-2.7-3.1
		l-2.5,2.3l-1-1.1l2.5-2.3L17.2,1246.1z M15.9,1245.3l1.1,1.3l-1.8,1.6l-1.1-1.3c-0.4-0.5-0.4-1.3,0.1-1.7
		C14.7,1244.8,15.5,1244.8,15.9,1245.3z"/>
</g>
<path class="st5" d="M32.6,1249.8"/>
<path class="st5" d="M26.5,1249.8"/>
<line class="st1" x1="26.7" y1="1255.6" x2="34.7" y2="1255.6"/>
<line class="st1" x1="26.7" y1="1249" x2="31.5" y2="1249"/>
<line class="st1" x1="26.7" y1="1252.4" x2="35.1" y2="1252.4"/>
<line class="st1" x1="26.5" y1="1258.7" x2="34.7" y2="1258.7"/>
<line class="st1" x1="26.7" y1="1245.8" x2="31.5" y2="1245.8"/>
<path class="st5" d="M15.4,1308.9"/>
<g>
	<g>
		<path class="st1" d="M31.1,1293.6v-0.5v13.9c0,0,0.1,1.6-1.6,1.6H17.6c-1.6,0-1.7-1.6-1.7-1.6v-17.7c0-1.5,1.6-1.5,1.6-1.5h8h1.4"
			/>
		<polygon class="st5" points="30.8,1292.7 27.2,1292.7 27.1,1288.2 29,1290.5 		"/>
	</g>
	<line class="st1" x1="18" y1="1300.6" x2="23.5" y2="1300.6"/>
	<line class="st1" x1="18" y1="1294.3" x2="22.8" y2="1294.3"/>
	<path class="st1" d="M25.4,1295"/>
	<path class="st1" d="M20.6,1295"/>
	<line class="st1" x1="18" y1="1297.5" x2="23.9" y2="1297.5"/>
	<path class="st1" d="M23.9,1301.7"/>
	<path class="st1" d="M31.3,1302.8"/>
	<path class="st1" d="M23.8,1302.8"/>
	<line class="st10" x1="23.8" y1="1298.1" x2="28.7" y2="1298.1"/>
	<line class="st10" x1="23.8" y1="1302.3" x2="28.7" y2="1302.3"/>
	<line class="st1" x1="17.9" y1="1303.8" x2="24.5" y2="1303.8"/>
	<path class="st1" d="M28.8,1306c-3,0-5.5-2.5-5.5-5.5s2.5-5.5,5.5-5.5s5.5,2.5,5.5,5.5S31.9,1306,28.8,1306z M37.6,1307.5l-3.6-3.6
		l-0.1-0.1c0.6-0.9,1-2.1,1-3.3c0-3.3-2.7-6-6-6s-6,2.7-6,6s2.7,6,6,6c1.2,0,2.3-0.4,3.3-1l0.1,0.1l3.6,3.6c0.2,0.2,0.6,0.4,0.9,0.4
		c0.3,0,0.6-0.1,0.9-0.4C38.1,1308.8,38.1,1308,37.6,1307.5z"/>
	<line class="st1" x1="18" y1="1291.1" x2="22.8" y2="1291.1"/>
</g>
<line class="st3" x1="15.7" y1="1568.4" x2="15.7" y2="1571.9"/>
<g>
	<path class="st1" d="M37.7,1949.6h-8.5l-7.7,7.1v-7.1h-3.8c-1.3,0-2.3-1-2.3-2.3v-12.8c0-1.3,1-2.3,2.3-2.3h20c1.3,0,2.3,1,2.3,2.3
		v12.8C40,1948.6,39,1949.6,37.7,1949.6z"/>
</g>
<path class="st3" d="M31.2,1937.8"/>
<path class="st3" d="M37.9,1937.8"/>
<g>
	<path class="st1" d="M25.2,1984.7c0.8,0,1.5,0.7,1.5,1.5v7.7l9.9,6.2v2.7l-9.9-3.4v5.2l2,2v2.1l-3.5-1.2l-3.5,1.2v-2.2l1.9-1.9
		v-5.3l-9.9,3.4v-2.7l9.9-6.3v-7.6C23.7,1985.4,24.4,1984.7,25.2,1984.7z"/>
	<path class="st0" d="M32.3,1989.9c-0.1-0.2-0.2-0.4-0.4-0.5c-0.1-0.2-0.3-0.3-0.5-0.4s-0.4-0.2-0.6-0.3l-0.6-0.2
		c-0.2-0.1-0.3-0.2-0.5-0.3c-0.1-0.1-0.3-0.2-0.3-0.3c-0.1-0.1-0.1-0.3-0.1-0.4s0-0.2,0.1-0.3c0-0.1,0.1-0.2,0.2-0.2
		c0.1-0.1,0.2-0.1,0.3-0.2c0.1,0,0.3-0.1,0.4-0.1c0.2,0,0.4,0,0.6,0.1s0.3,0.1,0.4,0.2s0.2,0.1,0.3,0.2s0.1,0.1,0.2,0.1h0.1
		c0,0,0-0.1,0.1-0.1c0-0.1,0-0.1,0-0.2v-0.3v-0.2v-0.2v-0.1c0,0,0-0.1-0.1-0.1s-0.1-0.1-0.2-0.1c-0.1-0.1-0.2-0.1-0.4-0.1
		c-0.1,0-0.3-0.1-0.5-0.1h-0.1v-0.9h-0.9v0.9c-0.1,0-0.3,0-0.5,0.1c-0.3,0.1-0.5,0.2-0.8,0.4c-0.2,0.2-0.4,0.4-0.5,0.6
		c-0.1,0.3-0.2,0.6-0.2,0.9s0,0.6,0.1,0.8c0.1,0.2,0.2,0.4,0.3,0.6s0.3,0.3,0.5,0.4s0.4,0.2,0.6,0.3l0.6,0.2
		c0.2,0.1,0.3,0.2,0.5,0.3c0.2,0.1,0.3,0.2,0.3,0.3c0.1,0.1,0.1,0.3,0.1,0.4s0,0.3-0.1,0.4c0,0.1-0.1,0.2-0.2,0.3
		c-0.1,0.1-0.2,0.1-0.4,0.2c-0.1,0-0.3,0.1-0.5,0.1c-0.3,0-0.5,0-0.7-0.1s-0.4-0.1-0.5-0.2s-0.3-0.1-0.4-0.2s-0.2-0.1-0.2-0.1h-0.1
		l-0.1,0.1c0,0.1,0,0.1,0,0.2v0.3c0,0.2,0,0.3,0,0.4s0.1,0.2,0.1,0.2s0.1,0.1,0.2,0.2s0.2,0.1,0.4,0.2s0.4,0.1,0.6,0.1
		s0.4,0.1,0.7,0.1l0,0v0.8h0.9v-1h0.1c0.3-0.1,0.6-0.2,0.8-0.4s0.4-0.4,0.6-0.7c0.1-0.3,0.2-0.6,0.2-1
		C32.5,1990.4,32.4,1990.1,32.3,1989.9z"/>
</g>
<rect x="26.5" y="2036.8" class="st1" width="1.6" height="2.5"/>
<path class="st0" d="M26.5,2047.6c0-1.8-1.5-3.3-3.3-3.3s-3.3,1.5-3.3,3.3c0,1.8,1.5,3.3,3.3,3.3v-3.3L26.5,2047.6L26.5,2047.6z"/>
<path class="st0" d="M27.3,2048.4H24v3.3C25.9,2051.7,27.3,2050.2,27.3,2048.4z"/>
<rect x="29" y="2044.3" class="st0" width="5.7" height="1.6"/>
<rect x="29" y="2046.8" class="st0" width="5.7" height="1.6"/>
<rect x="29" y="2049.2" class="st0" width="5.7" height="1.6"/>
<path class="st1" d="M30.5,2058.1L28,2055l0,0l-0.1-0.1l-0.1-0.1l0,0h-0.1c-0.1,0-0.1,0-0.2,0s-0.1,0-0.2,0s-0.1,0-0.2,0
	s-0.1,0-0.2,0h-0.1l0,0l-0.1,0.1l-0.1,0.1l0,0l-2.5,3.1c-0.2,0.3-0.1,0.7,0.3,0.9c0.1,0.1,0.3,0.1,0.4,0.1c0.3,0,0.5-0.1,0.7-0.3
	l1.8-2.2l1.8,2.2c0.2,0.2,0.4,0.3,0.7,0.3c0.1,0,0.3,0,0.4-0.1C30.6,2058.8,30.7,2058.4,30.5,2058.1z"/>
<path class="st1" d="M36.3,2053.3h-18v-11.5h18V2053.3z M38.8,2039.4H15.9v2.5h0.8v13.1H38v-13.1h0.8V2039.4L38.8,2039.4z"/>
<rect x="15.9" y="2099.1" class="st15" width="2" height="1.9"/>
<rect x="15.9" y="2094.1" class="st15" width="2" height="1.9"/>
<rect x="15.9" y="2105.1" class="st15" width="2" height="1.9"/>
<rect x="19.8" y="2105.1" class="st15" width="10" height="1.9"/>
<path class="st16" d="M33.8,2100.1l5.2,5.2l-1.7,1.7l-5.2-5.2C32.9,2101.3,33.4,2100.7,33.8,2100.1z"/>
<polygon class="st17" points="29.8,2101 21.9,2101 20.5,2099.1 29.8,2099.1 "/>
<rect x="19.7" y="2094.1" class="st17" width="10.1" height="1.9"/>
<polygon class="st15" points="21.9,2101 19.8,2101 19.8,2099.1 20.5,2099.1 "/>
<circle class="st16" cx="27.5" cy="2095.5" r="7.8"/>
<g id="Layer_2">
	<g>
		<g>
			<g>
				<g>
					<g>
						<defs>
							<path id="SVGID_1_" d="M25.2,2138c0-1.5,1.2-2.7,2.7-2.7s2.7,1.2,2.7,2.7s-1.2,2.7-2.7,2.7
								C26.4,2140.8,25.2,2139.6,25.2,2138"/>
						</defs>
						<clipPath id="SVGID_2_">
							<use xlink:href="#SVGID_1_"  style="overflow:visible;"/>
						</clipPath>
						<rect x="22.8" y="2132.9" class="st18" width="10.2" height="10.2"/>
					</g>
				</g>
			</g>
		</g>
	</g>
	<path class="st19" d="M15.4,2150.5h1.9v-8c-0.6,0-1.2-0.1-1.9,0V2150.5z M33.7,2144.7c-0.5,0.6-1.1,1.3-1.8,1.4
		c-1.9,0.6-5.9,0.7-6.1,0.7c-0.4,0-1.3-0.1-1.3-0.6c0-0.2,0.5-0.6,0.7-0.6c1.3-0.1,6.3-0.4,6.3-1.4c0-0.8-1.1-0.7-1.6-0.7
		c-0.2,0-2.8,0.2-3,0.2c-1.9,0-2.8-1.7-4.8-1.7c-1.1,0-3.4,0.7-4.1,1.8c0.1,0.1,0.1,0.2,0,4.1c0.1,1,1.7,0.7,2.4,1
		c2.5,0.6,7.2,1.7,7.5,1.7c1.2,0,4.9-1.7,5.3-2.2c1.8-2,4.5-6.5,4.5-6.7v-0.8c-0.1,0-0.1-0.1-0.5-0.1
		C36.4,2140.7,34.3,2143.9,33.7,2144.7z"/>
	<g>
		<g>
			<path id="SVGID_3_" class="st17" d="M28.9,2188.6h2.6c0.2,0,0.2,0.4,0.2,0.6s-0.2,0.4-0.4,0.4h-3c-0.2,0-0.4-0.2-0.4-0.4v-5.3
				c0-0.2,0.3-0.4,0.6-0.4c0.2,0,0.4,0.2,0.4,0.4L28.9,2188.6"/>
		</g>
		<g>
			<g>
				<g>
					<g>
						<defs>
							<path id="SVGID_4_" d="M28.9,2188.6h2.6c0.2,0,0.2,0.4,0.2,0.6s-0.2,0.4-0.4,0.4h-3c-0.2,0-0.4-0.2-0.4-0.4v-5.3
								c0-0.2,0.3-0.4,0.6-0.4c0.2,0,0.4,0.2,0.4,0.4L28.9,2188.6"/>
						</defs>
						<clipPath id="SVGID_5_">
							<use xlink:href="#SVGID_4_"  style="overflow:visible;"/>
						</clipPath>
						<rect x="25.6" y="2181.1" class="st20" width="8.6" height="10.8"/>
					</g>
				</g>
			</g>
		</g>
	</g>
	<path class="st19" d="M22.2,2180.6c1.8-2.1,4-2.4,6.4-2.4c5.5,0,9.9,4.5,9.9,10.1s-4.4,10.1-9.9,10.1c-4.6,0-8.4-3.3-9.5-7.6v-0.1
		H16l4.5-3.2l5.3,3.2h-4v0.1c1.1,2.7,3.7,4.8,6.7,4.8c4,0,7.2-3.3,7.2-7.4s-3.2-7.4-7.2-7.4c-1.7,0-3.3,0.6-4.5,1.6
		C24.1,2182.5,22.1,2180.7,22.2,2180.6z"/>
	<g>
		<g>
			<g>
				<g>
					<g>
						<defs>
							<path id="SVGID_6_" d="M26.9,2229.2c4.3,0,7.8,3.4,8.2,7.6h3.1c-0.4-5.8-5.3-10.6-11.2-10.6s-10.8,4.8-11.2,10.6h3
								C19.1,2232.6,22.6,2229.2,26.9,2229.2z"/>
						</defs>
						<clipPath id="SVGID_8_">
							<use xlink:href="#SVGID_6_"  style="overflow:visible;"/>
						</clipPath>
						<rect x="13.8" y="2224.2" class="st21" width="26.4" height="14.5"/>
					</g>
				</g>
			</g>
		</g>
	</g>
	<path class="st19" d="M26.9,2229.2c4.3,0,7.8,3.4,8.2,7.6h3.1c-0.4-5.8-5.3-10.6-11.2-10.6s-10.8,4.8-11.2,10.6h3
		C19.1,2232.6,22.6,2229.2,26.9,2229.2z"/>
	<g>
		<g>
			<path id="SVGID_7_" class="st17" d="M26.8,2237.7c-0.1,0.2-0.5,0.4-0.7,0.4c-0.5,0-1-0.5-1-1c0-0.9,3.3-5,4.2-5.7
				C28.7,2233.5,27.7,2235.6,26.8,2237.7"/>
		</g>
		<g>
			<g>
				<g>
					<g>
						<defs>
							<path id="SVGID_9_" d="M26.8,2237.7c-0.1,0.2-0.5,0.4-0.7,0.4c-0.5,0-1-0.5-1-1c0-0.9,3.3-5,4.2-5.7
								C28.7,2233.5,27.7,2235.6,26.8,2237.7"/>
						</defs>
						<clipPath id="SVGID_10_">
							<use xlink:href="#SVGID_9_"  style="overflow:visible;"/>
						</clipPath>
						<rect x="23.1" y="2229.5" class="st22" width="8.1" height="10.6"/>
					</g>
				</g>
			</g>
		</g>
	</g>
</g>
<g>
	<path class="st11" d="M27,2290.7l3.8-5.1v-2.3c-1.7,2.3-3.8,2.6-3.8,2.6s-2.1-0.3-3.8-2.6v2.4L27,2290.7z"/>
</g>
<g>
	<g>
		<g>
			<g>
				<g>
					<g>
						<g>
							
								<ellipse transform="matrix(0.9778 -0.2097 0.2097 0.9778 -477.3698 55.1344)" class="st12" cx="21.3" cy="2278.8" rx="0.8" ry="1.8"/>
						</g>
					</g>
				</g>
			</g>
		</g>
	</g>
</g>
<g>
	<g>
		<g>
			<g>
				<g>
					<g>
						<g>
							
								<ellipse transform="matrix(0.2096 -0.9778 0.9778 0.2096 -2201.8608 1833.0603)" class="st12" cx="32.9" cy="2278.5" rx="1.8" ry="0.8"/>
						</g>
					</g>
				</g>
			</g>
		</g>
	</g>
</g>
<g>
	<path class="st11" d="M27,2269.2c-7,0-6,6.8-6,6.8c0.4,9.2,6,10,6,10s5.6-0.9,6-10C33,2275.9,34.1,2269.2,27,2269.2z"/>
</g>
<g>
	<path class="st8" d="M31.9,2271.1c0.6-0.5-0.4-1.1-0.4-1.1c-0.9-0.2-0.3,0-0.3,0v-0.3l-0.2,0.1c-0.1-0.4-0.5-0.9-0.5-0.9
		c-0.7-0.2,0,0-0.7,0c-0.2-0.5-0.7-0.8-0.7-0.8c-0.6-0.1-0.9-0.5-2-0.2c-1,0-1.1,0.2-1.1,0.2c-2.2,0.6-2.2,0.5-3.3,1.3
		c-0.8,0.5-1.1,1-1.1,1c-0.4,0.5-0.5,1.4-0.4,2.7c-0.3,1.4-0.1,2.6-0.1,2.6c0,0.6,0.1,1.1,0.1,1.6h1c-0.9-3.3,0.7-5.5,0.7-5.5
		c1,1.4,4.2,1.4,4.2,1.4s3.2,0,4.2-1.4c0,0,1.6,2.1,0.7,5.5h1c0.1-0.5,0.1-1,0.2-1.6C33,2275.9,33.4,2273.1,31.9,2271.1L31.9,2271.1
		z"/>
</g>
<g>
	<g>
		<path class="st2" d="M37.8,2281.9h-0.5c-0.3,0-0.5-0.2-0.6-0.4l-0.3-0.7c-0.1-0.2-0.1-0.5,0.1-0.7l0.4-0.4c0.2-0.2,0.2-0.5,0-0.6
			l-0.6-0.6c-0.2-0.2-0.5-0.2-0.6,0l-0.4,0.4c-0.2,0.2-0.5,0.2-0.7,0.1l-0.7-0.3c-0.3-0.1-0.4-0.3-0.4-0.6v-0.5
			c0-0.3-0.2-0.5-0.5-0.5h-1c-0.3,0-0.5,0.2-0.5,0.5v0.5c0,0.3-0.2,0.5-0.4,0.6l-0.7,0.3c-0.2,0.1-0.5,0.1-0.7-0.1l-0.4-0.4
			c-0.2-0.2-0.5-0.2-0.6,0l-0.6,0.6c-0.2,0.2-0.2,0.5,0,0.6l0.4,0.4c0.2,0.2,0.2,0.5,0.1,0.7l-0.3,0.7c-0.1,0.3-0.3,0.4-0.6,0.4
			h-0.5c-0.3,0-0.5,0.2-0.5,0.5v0.9c0,0.3,0.2,0.5,0.5,0.5h0.5c0.3,0,0.5,0.2,0.6,0.4l0.3,0.7c0.1,0.2,0.1,0.5-0.1,0.7l-0.4,0.4
			c-0.2,0.2-0.2,0.5,0,0.6l0.6,0.6c0.2,0.2,0.5,0.2,0.6,0l0.4-0.4c0.2-0.2,0.5-0.2,0.7-0.1l0.7,0.3c0.3,0.1,0.4,0.3,0.4,0.6v0.5
			c0,0.3,0.2,0.5,0.5,0.5h0.9c0.3,0,0.5-0.2,0.5-0.5v-0.5c0-0.3,0.2-0.5,0.4-0.6l0.7-0.3c0.2-0.1,0.5-0.1,0.7,0.1l0.4,0.4
			c0.2,0.2,0.5,0.2,0.6,0l0.6-0.6c0.2-0.2,0.2-0.5,0-0.6l-0.4-0.4c-0.2-0.2-0.2-0.5-0.1-0.7l0.3-0.7c0.1-0.3,0.3-0.4,0.6-0.4h0.5
			c0.3,0,0.5-0.2,0.5-0.5v-0.9C38.3,2282.1,38.1,2281.9,37.8,2281.9z"/>
	</g>
	<circle class="st1" cx="32.4" cy="2282.9" r="2.6"/>
</g>
<g>
	<path class="st11" d="M27,2343.7l3.8-5.1v-2.3c-1.7,2.3-3.8,2.6-3.8,2.6s-2.1-0.3-3.8-2.6v2.4L27,2343.7z"/>
</g>
<g>
	<g>
		<g>
			<g>
				<g>
					<g>
						<g>
							
								<ellipse transform="matrix(0.9778 -0.2097 0.2097 0.9778 -488.4839 56.3128)" class="st12" cx="21.3" cy="2331.8" rx="0.8" ry="1.8"/>
						</g>
					</g>
				</g>
			</g>
		</g>
	</g>
</g>
<g>
	<path class="st11" d="M27,2322.2c-7,0-6,6.8-6,6.8c0.4,9.2,6,10,6,10s5.6-0.9,6-10C33,2328.9,34.1,2322.2,27,2322.2z"/>
</g>
<g>
	<path class="st8" d="M31.9,2324.1c0.6-0.5-0.4-1.1-0.4-1.1c-0.9-0.2-0.3,0-0.3,0v-0.3l-0.2,0.1c-0.1-0.4-0.5-0.9-0.5-0.9
		c-0.7-0.2,0,0-0.7,0c-0.2-0.5-0.7-0.8-0.7-0.8c-0.6-0.1-0.9-0.5-2-0.2c-1,0-1.1,0.2-1.1,0.2c-2.2,0.6-2.2,0.5-3.3,1.3
		c-0.8,0.5-1.1,1-1.1,1c-0.4,0.5-0.5,1.4-0.4,2.7c-0.3,1.4-0.1,2.6-0.1,2.6c0,0.6,0.1,1.1,0.1,1.6h1c-0.9-3.3,0.7-5.5,0.7-5.5
		c1,1.4,4.2,1.4,4.2,1.4s3.2,0,4.2-1.4c0,0,1.6,2.1,0.7,5.5h1c0.1-0.5,0.1-1,0.2-1.6C33,2328.9,33.4,2326.1,31.9,2324.1L31.9,2324.1
		z"/>
</g>
<path class="st2" d="M30.5,2337.4c-0.2,0.2-0.4,0.2-0.6,0l-0.1-0.1l-0.1-0.1l-0.6-0.6l0,0l-2.8-2.8c-0.2-0.2-0.2-0.4,0-0.6l0.9-0.9
	c0.2-0.2,0.4-0.2,0.6,0l2.5,2.5l5.2-5.2c0.2-0.2,0.4-0.2,0.6,0l0.9,0.9c0.2,0.2,0.2,0.4,0,0.6L30.5,2337.4z"/>
<polygon class="st23" points="22.1,2367.1 23.4,2371 27.6,2371.1 24.3,2373.6 25.5,2377.6 22.1,2375.2 18.6,2377.6 19.8,2373.6 
	16.5,2371.1 20.7,2371 "/>
<polygon class="st8" points="29.7,2369.4 30.3,2371.1 32.1,2371.1 30.7,2372.2 31.2,2373.8 29.7,2372.8 28.3,2373.8 28.8,2372.2 
	27.4,2371.1 29.2,2371.1 "/>
<polygon class="st8" points="34.7,2369.4 35.3,2371.1 37.1,2371.1 35.7,2372.2 36.2,2373.8 34.7,2372.8 33.3,2373.8 33.8,2372.2 
	32.4,2371.1 34.2,2371.1 "/>
<g id="SvOFcj.tif">
	<g>
		<path class="st7" d="M38.7,2413.8c-0.1,0.5-0.1,1.1-0.2,1.6c-0.1,0.4-0.4,0.6-0.8,0.6c-0.2,0-0.4,0-0.6,0c-0.4,0-0.8,0.2-0.9,0.6
			c-0.2,0.5-0.4,1-0.6,1.5c-0.1,0.4-0.1,0.7,0.2,1c0.1,0.2,0.3,0.3,0.5,0.5c0.3,0.3,0.3,0.8,0,1.1c-0.6,0.6-1.2,1.2-1.8,1.8
			c-0.3,0.3-0.8,0.3-1.1,0c-0.1-0.1-0.3-0.3-0.4-0.4c-0.3-0.3-0.7-0.4-1.2-0.2c-0.4,0.2-0.9,0.4-1.3,0.5c-0.5,0.2-0.7,0.5-0.7,1
			c0,0.2,0,0.4,0,0.6c0,0.4-0.3,0.7-0.7,0.8c-0.9,0.1-1.8,0.1-2.7,0c-0.5-0.1-0.8-0.4-0.8-0.9v-0.1c0.1-1-0.3-1.2-1-1.5
			c-0.3-0.1-0.6-0.3-1-0.4c-0.4-0.2-0.8-0.1-1.1,0.2c-0.2,0.1-0.3,0.3-0.4,0.4c-0.3,0.3-0.8,0.3-1.1,0c-0.6-0.6-1.2-1.2-1.8-1.8
			c-0.3-0.3-0.3-0.8,0-1.1c0.1-0.1,0.3-0.3,0.4-0.4c0.3-0.3,0.4-0.7,0.2-1.2c-0.2-0.4-0.4-0.9-0.6-1.3c-0.2-0.4-0.5-0.7-1-0.7
			c-0.2,0-0.4,0-0.6,0c-0.5,0-0.8-0.3-0.9-0.8s-0.1-1-0.1-1.5c1.8,0,3.5,0,5.2,0c0,2,0.8,3.6,2.4,4.8c1.2,0.9,2.5,1.2,3.9,1.1
			c3-0.2,5.4-2.8,5.3-5.9C35.2,2413.8,36.9,2413.8,38.7,2413.8z"/>
	</g>
</g>
<g id="m3PwW1.tif">
	<g>
		<path class="st8" d="M23.5,2401.7c0.2,1.3,0.5,2.6,0.7,3.9c0,0.2,0.1,0.3,0.1,0.5c0.1,0.4,0.4,0.6,0.8,0.6
			c0.4-0.1,0.6-0.4,0.5-0.9c-0.2-1.4-0.5-2.8-0.7-4.2c-0.2-0.9,0.2-1.4,1.1-1.5c1.1-0.1,2.3-0.1,3.4,0c0.3,0,0.6,0.3,0.9,0.4
			c0.3,0.2,0.3,0.5,0.3,0.8c-0.3,1.5-0.5,2.9-0.8,4.4c-0.1,0.6,0.1,0.9,0.5,1s0.8-0.2,0.9-0.8c0.3-1.4,0.5-2.7,0.7-4.1
			c2.5,0.7,4.7,4.2,5.1,8.2c0.1,0,0.2,0,0.3,0c0.8,0.1,1.4,0.6,1.3,1.4c0,0.8-0.6,1.3-1.5,1.3c-3,0-6.1,0-9.1,0c-3.3,0-6.7,0-10,0
			c-0.9,0-1.5-0.6-1.5-1.4c0-0.7,0.5-1.2,1.3-1.3c0.1,0,0.2,0,0.4,0C18.5,2406.3,20.2,2403.5,23.5,2401.7z"/>
	</g>
</g>
<g>
	<path class="st2" d="M22.7,2463.5c0-4.5,3.7-8.2,8.2-8.2c1.7,0,3.3,0.5,4.6,1.4v-2.6l0,0H31l0.2-5.8l-0.3-0.4h-1.5h-8.5
		c0,0-1.7,0-1.7,1.6v18.9c0,0,0.1,1.7,1.8,1.7h5.1C24,2468.6,22.7,2466.2,22.7,2463.5z"/>
	<line class="st1" x1="30.9" y1="2447.9" x2="35.5" y2="2454.1"/>
	<polygon class="st24" points="35.1,2453.9 31.3,2453.9 31.3,2448.9 33.3,2451.5 	"/>
</g>
<circle class="st0" cx="30.9" cy="2463.5" r="8.5"/>
<g>
	<path class="st25" d="M29.7,2465"/>
	<path class="st25" d="M34.7,2465"/>
	<line class="st26" x1="36.1" y1="2466.1" x2="30.5" y2="2466.1"/>
</g>
<line class="st26" x1="30.4" y1="2458.9" x2="30.4" y2="2466.1"/>
<g>
	<path class="st27" d="M23.9,2499.3c-1.7,0.8-3.3,2.2-3.7,4.1v3.7c-0.5,0.9-2.4,2.1-2.4,2.5c0,0.5,2.1,0.7,2.4,1.4
		c0.2,0.2,0.2,0.6,0.2,0.8c0.2,0.2,0.5-0.1,0.6,0.4c0.1,0.4-0.7,0.4-0.7,0.8c0,0.5,0.2,1.4,0.2,1.8c0.2,0.2,0.5,0.3,0.7,0.5h3.3
		c0.9,1.4,0.5,0.6,0.7,2h6.3v-0.5c0-0.5-0.2-1.9,0.2-2.4c0.5-1.2,1.1-2.4,1.7-3.6c1.1-1.3,1.7-3,1.7-4.9c0-4.2-3.2-7.6-7.2-7.6
		C26.6,2498.1,25,2498.5,23.9,2499.3z"/>
	<g>
		<path class="st8" d="M38.5,2502.2L38.5,2502.2c-0.4,0-0.7-0.1-0.8-0.3l-0.4-1c-0.2-0.3-0.1-0.7,0.1-1l0.5-0.5
			c0.2-0.2,0.2-0.7,0-0.9l-0.9-0.9c-0.2-0.2-0.7-0.2-0.9,0l-0.5,0.5c-0.2,0.2-0.7,0.3-1,0.1l-0.9-0.4c-0.4-0.1-0.6-0.4-0.6-0.8v-0.2
			c0-0.4-0.3-0.6-0.6-0.6h-1.7c-0.4,0-0.6,0.3-0.6,0.6v0.2c0,0.4-0.3,0.7-0.6,0.8l-0.6,0.4c-0.3,0.1-0.7,0.1-1-0.1l-0.5-0.5
			c-0.2-0.2-0.6-0.2-0.9,0l-0.9,0.9c-0.2,0.2-0.2,0.7,0,0.9l0.5,0.5c0.2,0.2,0.3,0.7,0.1,1l-0.4,0.7c-0.1,0.4-0.4,0.6-0.8,0.6h-0.4
			c-0.4,0-0.6,0.3-0.6,0.6v1.7c0,0.4,0.3,0.7,0.6,0.7h0.4c0.4,0,0.7,0.3,0.8,0.6l0.4,0.8c0.1,0.3,0.1,0.7-0.1,1l-0.5,0.5
			c-0.2,0.2-0.2,0.6,0,0.9l0.9,0.9c0.2,0.2,0.7,0.2,0.9,0l0.5-0.5c0.2-0.2,0.7-0.3,1-0.1l0.6,0.4c0.4,0.1,0.6,0.4,0.6,0.8v0.1
			c0,0.4,0.3,0.7,0.6,0.7h1.7c0.4,0,0.6-0.3,0.6-0.7v-0.1c0-0.4,0.3-0.7,0.6-0.8l0.9-0.4c0.3-0.2,0.7-0.1,1,0.1l0.5,0.5
			c0.2,0.2,0.6,0.2,0.9,0l0.9-0.9c0.2-0.2,0.2-0.6,0-0.9l-0.5-0.5c-0.2-0.2-0.3-0.7-0.1-1l0.4-0.9c0.1-0.4,0.4-0.6,0.8-0.6h0
			c0.4,0,0.6-0.3,0.6-0.7v-1.6C39.2,2502.5,38.9,2502.2,38.5,2502.2z"/>
		<path class="st28" d="M31.8,2500.3c1.9,0,3.5,1.6,3.5,3.5s-1.6,3.5-3.5,3.5c-1.9,0-3.5-1.6-3.5-3.5S29.9,2500.3,31.8,2500.3z"/>
	</g>
</g>
</svg>
